<?xml version="1.0" encoding="UTF-8"?>
<svg width="174px" height="245px" viewBox="0 0 174 245" version="1.1" xmlns="http://www.w3.org/2000/svg" xmlns:xlink="http://www.w3.org/1999/xlink">
    <title>Path</title>
    <g id="Page-1" stroke="none" stroke-width="1" fill="none" fill-rule="evenodd">
        <g id="Assets" transform="translate(-122.000000, -802.000000)" fill="#0CD15B" fill-rule="nonzero">
            <g id="adahandle" transform="translate(122.000000, 802.000000)">
                <path d="M59.04,18.432 C59.04,14.016 62.688,9.888 69.984,6.048 C77.28,2.016 86.88,0 98.784,0 C108,0 113.952,1.92 116.64,5.76 C118.56,8.448 119.52,10.944 119.52,13.248 L119.52,21.888 C141.216,24.192 156.288,28.224 164.736,33.984 C168.192,36.288 169.92,38.496 169.92,40.608 C169.92,50.592 167.52,61.344 162.72,72.864 C158.112,84.384 153.6,90.144 149.184,90.144 C148.416,90.144 145.92,89.28 141.696,87.552 C129.024,81.984 118.464,79.2 110.016,79.2 C101.76,79.2 96.096,79.968 93.024,81.504 C90.144,83.04 88.704,85.44 88.704,88.704 C88.704,91.776 90.816,94.176 95.04,95.904 C99.264,97.632 104.448,99.168 110.592,100.512 C116.928,101.664 123.744,103.68 131.04,106.56 C138.528,109.44 145.44,112.896 151.776,116.928 C158.112,120.96 163.392,127.008 167.616,135.072 C171.84,142.944 173.952,151.008 173.952,159.264 C173.952,167.52 173.184,174.336 171.648,179.712 C170.112,185.088 167.424,190.656 163.584,196.416 C159.936,202.176 154.272,207.36 146.592,211.968 C139.104,216.384 130.08,219.648 119.52,221.76 L119.52,226.368 C119.52,230.784 115.872,234.912 108.576,238.752 C101.28,242.784 91.68,244.8 79.776,244.8 C70.56,244.8 64.608,242.88 61.92,239.04 C60,236.352 59.04,233.856 59.04,231.552 L59.04,222.912 C46.56,221.76 35.712,219.936 26.496,217.44 C8.832,212.64 0,207.456 0,201.888 C0,191.136 1.536,180 4.608,168.48 C7.68,156.768 11.328,150.912 15.552,150.912 C16.32,150.912 24.288,153.504 39.456,158.688 C54.624,163.872 66.048,166.464 73.728,166.464 C81.408,166.464 86.4,165.696 88.704,164.16 C91.008,162.432 92.16,160.032 92.16,156.96 C92.16,153.888 90.048,151.296 85.824,149.184 C81.6,146.88 76.32,145.056 69.984,143.712 C63.648,142.368 56.736,140.256 49.248,137.376 C41.952,134.496 35.136,131.136 28.8,127.296 C22.464,123.456 17.184,117.792 12.96,110.304 C8.736,102.816 6.624,94.08 6.624,84.096 C6.624,48.768 24.096,28.128 59.04,22.176 L59.04,18.432 Z" id="Path"></path>
            </g>
        </g>
    </g>
</svg>