<?xml version="1.0" encoding="UTF-8"?>
<svg width="64px" height="46px" viewBox="0 0 64 46" version="1.1" xmlns="http://www.w3.org/2000/svg" xmlns:xlink="http://www.w3.org/1999/xlink">
    <title>waves-svgrepo-com</title>
    <g id="Page-1" stroke="none" stroke-width="1" fill="none" fill-rule="evenodd">
        <g id="Desktop-HD" transform="translate(-1428.000000, -198.000000)" fill="#000000" fill-rule="nonzero">
            <g id="waves-svgrepo-com" transform="translate(1428.000000, 198.000000)">
                <path d="M63.5476495,37.7249489 C53.4978808,30.0884411 41.1957284,30.0918952 31.4393623,37.7340497 C21.4052986,45.5996908 11.6313336,45.6019934 1.55816934,37.7328983 C1.09967099,37.3746354 0.478573212,37.51748 0.170474316,38.0493442 C-0.138124579,38.5812083 -0.016025016,39.302454 0.441973343,39.6608312 C5.85405375,43.8872906 11.1860344,46.0011508 16.513716,46 C21.8412974,46 27.1649782,43.8861349 32.5580597,39.6596799 C41.634222,32.5481239 53.0887822,32.5504265 62.4519498,39.6686666 C62.9143466,40.017943 63.5345455,39.8694559 63.8367448,39.3331007 C64.1389445,38.7966268 64.0096497,38.0765325 63.5476495,37.7249489 Z" id="Path"></path>
                <path d="M63.5476495,21.725973 C53.4978808,14.0880991 41.1952249,14.0915549 31.4393623,21.7350727 C21.4032978,29.5997405 11.6284325,29.5985894 1.55816934,21.7339215 C1.09967099,21.3755883 0.478573212,21.5173785 0.170474316,22.0503283 C-0.138124579,22.5821269 -0.016025016,23.3032838 0.441973343,23.6615026 C5.85355405,27.8864001 11.1846345,30 16.5127166,30 C21.8402961,29.9988487 27.164078,27.8864001 32.5585594,23.6604657 C41.6332225,16.5475931 53.0887821,16.5520858 62.4519498,23.6694512 C62.9143466,24.0186847 63.5345455,23.8702114 63.8367448,23.3338081 C64.1389445,22.7975189 64.0096497,22.0775111 63.5476495,21.725973 Z" id="Path"></path>
                <path d="M16.5138408,14 C21.8414227,14 27.165104,11.8862264 32.5586856,7.66097959 C41.6343489,0.548676027 53.0898142,0.550979638 62.4520786,7.67007999 C62.9144755,8.01934215 63.5341747,7.87085887 63.8363702,7.33441143 C64.139073,6.79807596 64.0097781,6.07801132 63.5477779,5.7264444 C53.4990078,-1.9120583 41.1963507,-1.90860219 31.4394879,5.73554481 C21.4044239,13.5985563 11.6295576,13.5997076 1.55829233,5.73439128 C1.09979394,5.37602872 0.478696109,5.51898393 0.170097288,6.05082415 C-0.138001635,6.58255228 -0.0159020619,7.30376826 0.442096337,7.66213082 C5.85417771,11.8873777 11.1856591,14 16.5138408,14 Z" id="Path"></path>
            </g>
        </g>
    </g>
</svg>